<svg width="16" height="15" viewBox="0 0 16 15" fill="none" xmlns="http://www.w3.org/2000/svg">
<path d="M13.1562 9.375H12.2188C12.0944 9.375 11.9752 9.42439 11.8873 9.51229C11.7994 9.6002 11.75 9.71943 11.75 9.84375V13.125H2.375V3.75H6.59375C6.71807 3.75 6.8373 3.70061 6.92521 3.61271C7.01311 3.5248 7.0625 3.40557 7.0625 3.28125V2.34375C7.0625 2.21943 7.01311 2.1002 6.92521 2.01229C6.8373 1.92439 6.71807 1.875 6.59375 1.875H1.90625C1.53329 1.875 1.1756 2.02316 0.911881 2.28688C0.648158 2.5506 0.5 2.90829 0.5 3.28125L0.5 13.5938C0.5 13.9667 0.648158 14.3244 0.911881 14.5881C1.1756 14.8518 1.53329 15 1.90625 15H12.2188C12.5917 15 12.9494 14.8518 13.2131 14.5881C13.4768 14.3244 13.625 13.9667 13.625 13.5938V9.84375C13.625 9.71943 13.5756 9.6002 13.4877 9.51229C13.3998 9.42439 13.2806 9.375 13.1562 9.375ZM14.7969 0H11.0469C10.4208 0 10.1079 0.759082 10.5488 1.20117L11.5956 2.24795L4.45508 9.38584C4.38953 9.45116 4.33752 9.52878 4.30203 9.61425C4.26654 9.69971 4.24827 9.79135 4.24827 9.88389C4.24827 9.97643 4.26654 10.0681 4.30203 10.1535C4.33752 10.239 4.38953 10.3166 4.45508 10.3819L5.11924 11.0449C5.18456 11.1105 5.26218 11.1625 5.34765 11.198C5.43311 11.2335 5.52474 11.2517 5.61729 11.2517C5.70983 11.2517 5.80146 11.2335 5.88692 11.198C5.97239 11.1625 6.05001 11.1105 6.11533 11.0449L13.2523 3.90586L14.2988 4.95117C14.7383 5.39062 15.5 5.08301 15.5 4.45312V0.703125C15.5 0.516645 15.4259 0.337802 15.2941 0.205941C15.1622 0.074079 14.9834 0 14.7969 0V0Z" fill="black"/>
</svg>
