<svg width="15" height="16" viewBox="0 0 15 16" fill="none" xmlns="http://www.w3.org/2000/svg">
<path d="M14.796 13.4694L11.8749 10.5483C11.743 10.4164 11.5643 10.3432 11.3768 10.3432H10.8992C11.7079 9.30893 12.1884 8.00806 12.1884 6.59291C12.1884 3.22646 9.46065 0.498718 6.0942 0.498718C2.72774 0.498718 0 3.22646 0 6.59291C0 9.95937 2.72774 12.6871 6.0942 12.6871C7.50934 12.6871 8.81021 12.2066 9.84447 11.398V11.8755C9.84447 12.063 9.91772 12.2418 10.0496 12.3736L12.9707 15.2947C13.2461 15.5701 13.6914 15.5701 13.9639 15.2947L14.7931 14.4656C15.0685 14.1902 15.0685 13.7448 14.796 13.4694ZM6.0942 10.3432C4.02276 10.3432 2.34392 8.66728 2.34392 6.59291C2.34392 4.52147 4.01983 2.84264 6.0942 2.84264C8.16564 2.84264 9.84447 4.51854 9.84447 6.59291C9.84447 8.66435 8.16857 10.3432 6.0942 10.3432Z" fill="white"/>
</svg>
